PathFileType	4	(X/Y/Z)	C:/Users/beibeiliu/ov580/test_trc/User3\sequence.20_training_dense_left.trc
DataRate	CameraRate	NumFrames	NumMarkers	Units	OrigDataRate	OrigDataStartFrame	OrigNumFrames
120	120	10	19	mm	120	260	346
Frame#	Time	ThumbCMC			ThumbMCP			ThumbIP			ThumbTip			IndexMCP			IndexPIP			IndexTip			MiddleMCP			MiddlePIP			MiddleTip			RingMCP			RingPIP			RingTip			PinkyMCP			PinkyPIP			PinkyTip			BackHand1			BackHand2			BackHand3	
		X0	Y0	Z0	X1	Y1	Z1	X2	Y2	Z2	X3	Y3	Z3	X4	Y4	Z4	X5	Y5	Z5	X6	Y6	Z6	X7	Y7	Z7	X8	Y8	Z8	X9	Y9	Z9	X10	Y10	Z10	X11	Y11	Z11	X12	Y12	Z12	X13	Y13	Z13	X14	Y14	Z14	X15	Y15	Z15	X16	Y16	Z16	X17	Y17	Z17	X18	Y18	Z18	
259	2.15833	-223.023	27.4861	43.3786	-193.039	39.3097	36.8051	-163.996	32.6354	22.4632	-148.798	9.1292	19.2408	-187.996	6.45435	-21.8715	-155.577	11.6237	-16.8199	-159.34	12.9475	16.9806	-185.501	-12.647	-26.4223	-153.813	-11.8026	-18.3358	-165.989	-8.30339	23.6592	-185.931	-32.4145	-17.7532	-158.584	-31.6207	-9.71287	-163.511	-20.8952	24.9827	-195.101	-46.2091	-2.44716	-165.212	-46.5005	2.20218	-165.615	-33.432	29.7837	-239.94	-33.4993	11.8218	-255.859	-29.2548	35.427	-246.084	4.62747	19.9702	
260	2.16667	-231.566	28.1307	40.9706	-203.377	46.2741	33.3911	-174.372	43.9208	22.6729	-157.47	22.8861	21.4544	-189.815	11.0617	-23.0317	-161.071	16.5619	-17.1664	-164.79	25.4541	16.7009	-186.623	-6.12216	-24.6194	-154.944	0.713961	-17.0925	-166.799	4.78811	24.1929	-186.989	-22.5452	-14.0916	-156.405	-17.5823	-8.31553	-162.155	-10.3505	25.0257	-185.764	-40.3969	-3.14276	-162.17	-33.6618	1.37386	-162.922	-19.5212	32.5747	-235.147	-34.1846	13.9837	-253.814	-33.4328	36.2291	-248.259	-2.58993	20.9633	
261	2.175	-242.698	27.7239	41.2187	-214.767	49.9951	31.2603	-183.676	49.3445	19.2081	-164.932	30.9203	19.4317	-196.245	18.4825	-24.4882	-166.32	30.09	-16.5772	-171.834	31.7053	16.0479	-187.482	-2.73339	-25.163	-157.149	7.04559	-14.5633	-168.011	12.3393	20.6138	-185.944	-20.909	-11.9658	-155.313	-11.5468	-3.50326	-164.89	1.33072	26.0087	-187.514	-35.1528	2.00229	-161.526	-24.893	4.17101	-165.03	-10.3894	31.7755	-230.902	-32.0656	12.4985	-250.903	-37.3406	34.9161	-254.104	-0.3782	18.6296	
262	2.18333	-250.496	27.7002	38.7018	-225.158	48.5313	27.2156	-199.204	56.745	20.0148	-171.945	36.8294	17.873	-200.157	16.8567	-24.2188	-173.89	36.4445	-17.8776	-181.002	39.1669	15.5272	-192.18	0.614042	-22.772	-162.705	16.9269	-16.4668	-175.2	20.1361	21.8608	-185.433	-15.2784	-12.0763	-159.029	-1.24506	-1.87718	-170.261	10.6164	25.211	-184.866	-31.3305	1.58713	-160.992	-14.7833	8.17962	-164.99	-2.40222	31.5517	-236.035	-29.4929	14.7256	-254.117	-38.3053	38.9305	-255.611	-5.92307	20.0468	
263	2.19167	-260.756	29.0837	36.7084	-236.764	53.9405	22.697	-208.046	61.0041	13.7616	-185.836	43.0711	16.4205	-208.352	22.5002	-26.5774	-181.969	41.0552	-19.8496	-192.041	48.5115	9.4498	-196.544	4.77833	-24.1104	-168.264	23.9538	-16.1822	-185.253	28.1177	21.9833	-191.03	-7.55355	-13.5316	-164.439	5.17442	-5.72785	-177.252	18.9493	23.3403	-188.229	-23.231	4.07205	-166.903	-4.07666	6.8861	-173.622	6.27488	34.1879	-232.876	-30.8498	14.9124	-253.098	-38.1032	39.1168	-259.246	-4.11286	14.8267	
264	2.2	-266.703	21.7392	34.3161	-251.616	49.989	22.167	-219.281	61.156	8.42246	-197.245	47.3771	14.0667	-214.56	20.4131	-27.964	-194.593	44.5891	-27.6686	-202.397	51.7849	4.7625	-197.742	7.0065	-27.9379	-178.777	31.6418	-20.7624	-194.726	35.8589	15.3485	-194.289	-6.44561	-13.7512	-171.848	16.1671	-9.39957	-184.158	25.7254	18.7636	-187.477	-18.1613	1.0168	-170.262	0.87423	3.26179	-179.417	12.753	27.5942	-235.559	-28.2195	13.7216	-251.257	-38.4149	36.273	-264.634	-11.4497	15.6114	
265	2.20833	-273.424	20.3319	27.2592	-260.532	45.0027	17.0105	-234.439	60.024	4.85021	-209.131	44.8847	10.5752	-225.068	18.2011	-29.246	-203.236	46.3039	-28.2027	-213.153	50.8584	-0.1703	-208.864	7.52905	-30.1894	-185.962	30.1883	-26.6666	-202.283	35.9191	10.7837	-199.051	-2.63027	-19.3263	-176.631	16.948	-12.288	-189.293	28.3122	14.0816	-192.986	-16.4433	0.31857	-176.678	8.10803	2.2783	-187.444	16.8668	27.4935	-237.73	-33.3537	13.3555	-251.962	-42.1968	33.7508	-269.172	-14.4703	12.2742	
266	2.21667	-278.888	15.7163	25.3319	-266.12	40.4056	11.6754	-241.474	54.9	0.892746	-215.975	41.3698	7.56249	-230.693	14.6024	-32.727	-211.901	42.8331	-36.3132	-222.5	50.7847	-5.41866	-211.91	3.21972	-32.6672	-193.382	31.0582	-29.8649	-211.004	34.1832	8.91461	-205.108	-5.793	-21.1447	-183.506	16.5936	-18.0142	-197.694	27.9294	14.6584	-196.902	-15.1869	-3.88777	-180.109	8.06577	-1.57178	-192.931	19.1948	22.6106	-239.533	-34.5562	9.12688	-252.13	-45.1252	36.9092	-272.078	-19.2502	12.9457	
267	2.225	-283.33	11.5567	24.7327	-271.127	39.3093	7.91255	-245.788	49.5473	0.139489	-217.516	38.5329	4.73127	-236.819	10.6343	-36.3891	-216.915	40.3511	-36.4157	-227.959	44.3102	-4.28889	-215.988	2.23051	-37.462	-199.429	27.2503	-33.8912	-216.868	33.3775	3.83898	-207.269	-11.8123	-21.0509	-188.263	15.9692	-20.1016	-199.208	26.0734	8.21758	-203.006	-18.7955	-4.55976	-185.83	3.68719	-6.5294	-194.562	17.1668	18.7682	-239.946	-40.4057	10.9991	-255.521	-48.4285	37.9738	-273.946	-23.843	13.3086	
268	2.23333	-287.852	6.75746	24.1056	-273.372	31.9486	6.94081	-245.693	46.6423	-6.95012	-222.684	34.8423	2.39223	-239.006	9.03649	-41.7642	-220.788	33.0772	-42.8632	-232.134	40.8706	-7.33538	-219.29	-4.15841	-38.3991	-201.624	23.7883	-32.7207	-217.854	28.9528	-0.816128	-208.789	-15.6542	-23.6398	-192.715	10.0782	-24.0069	-202.2	21.7012	3.00833	-201.818	-26.1344	-6.13123	-189.456	-1.68281	-10.2501	-200.426	11.706	16.7215	-243.862	-44.5218	10.0317	-260.361	-51.7856	36.782	-274.39	-29.5671	9.11421	
